<svg width="243" height="228" viewBox="0 0 243 228" fill="none" xmlns="http://www.w3.org/2000/svg">
<path d="M191.268 15.2514C193.423 7.59592 187.67 0 179.717 0H147.796C142.572 0 137.948 3.3801 136.362 8.35806L104.153 109.48C101.688 117.22 107.464 125.122 115.587 125.122H151.253C156.628 125.122 161.348 121.547 162.804 116.373L191.268 15.2514Z" fill="black"/>
<path d="M237.027 165.757C239.85 157.935 234.055 149.683 225.74 149.683H29.256C23.7682 149.683 18.9797 153.406 17.6265 158.724L3.80602 213.041C1.87587 220.627 7.60793 228 15.4355 228H206.134C211.191 228 215.705 224.83 217.422 220.074L237.027 165.757Z" fill="black"/>
</svg>
