<svg width="1350" height="244" viewBox="0 0 1350 244" fill="none" xmlns="http://www.w3.org/2000/svg">
<path d="M89.6001 41.984L65.0241 189.44H27.1361L51.7121 41.984H8.7738e-05L5.12009 10.752H146.432L141.312 41.984H89.6001ZM189.34 243.712C177.052 243.712 166.641 242.432 158.108 239.872C149.575 237.312 141.98 232.107 135.324 224.256L157.596 201.216C161.692 206.165 166.3 209.664 171.42 211.712C176.711 213.76 182.343 214.784 188.316 214.784C193.095 214.784 197.361 214.187 201.116 212.992C204.871 211.968 208.199 210.005 211.1 207.104C214.001 204.203 216.476 200.192 218.524 195.072C220.572 190.123 222.279 183.637 223.644 175.616L227.228 153.6H225.948C220.999 164.352 215.196 172.8 208.54 178.944C202.055 185.088 193.521 188.16 182.94 188.16C176.455 188.16 170.908 187.136 166.3 185.088C161.863 183.04 158.193 180.309 155.292 176.896C152.391 173.312 150.257 169.216 148.892 164.608C147.527 160 146.844 155.136 146.844 150.016C146.844 146.261 147.015 142.421 147.356 138.496C147.868 134.571 148.636 129.536 149.66 123.392L160.668 57.344H198.044L186.268 127.744C185.927 130.133 185.5 132.608 184.988 135.168C184.647 137.728 184.476 140.629 184.476 143.872C184.476 145.579 184.732 147.371 185.244 149.248C185.756 151.125 186.609 152.832 187.804 154.368C188.999 155.904 190.535 157.184 192.412 158.208C194.46 159.061 196.935 159.488 199.836 159.488C204.273 159.488 208.113 158.464 211.356 156.416C214.599 154.368 217.671 151.381 220.572 147.456C222.449 144.896 224.668 141.397 227.228 136.96C229.959 132.352 231.751 127.317 232.604 121.856L243.356 57.344H280.732L260.252 180.224C256.668 201.728 248.817 217.685 236.7 228.096C224.753 238.507 208.967 243.712 189.34 243.712ZM314.68 57.344H352.056L346.936 88.832H348.216C350.776 83.712 353.421 79.104 356.152 75.008C359.053 70.7413 362.211 67.072 365.624 64C369.208 60.928 373.133 58.5387 377.4 56.832C381.837 55.1253 386.872 54.272 392.504 54.272C399.501 54.272 405.389 55.4667 410.168 57.856C415.117 60.2453 419.128 63.744 422.2 68.352C425.272 72.7893 427.491 78.1653 428.856 84.48C430.392 90.7947 431.16 97.792 431.16 105.472C431.16 118.613 429.709 130.56 426.808 141.312C423.907 151.893 419.811 161.024 414.52 168.704C409.229 176.213 402.829 182.101 395.32 186.368C387.981 190.464 379.704 192.512 370.488 192.512C360.077 192.512 352.141 190.123 346.68 185.344C341.389 180.395 337.805 173.568 335.928 164.864H334.136L321.336 240.64H283.96L314.68 57.344ZM358.456 163.584C367.672 163.584 374.755 160.939 379.704 155.648C384.653 150.187 387.981 142.421 389.688 132.352L392.248 116.992C392.589 115.456 392.845 113.749 393.016 111.872C393.187 109.824 393.272 107.691 393.272 105.472C393.101 99.1573 391.736 93.8667 389.176 89.6C386.787 85.3333 382.349 83.2 375.864 83.2C371.256 83.2 367.16 84.3093 363.576 86.528C359.992 88.7467 356.664 91.8187 353.592 95.744C351.544 98.1333 349.24 101.547 346.68 105.984C344.12 110.251 342.413 115.115 341.56 120.576L337.976 141.824C336.781 148.821 337.805 154.197 341.048 157.952C344.461 161.707 350.264 163.584 358.456 163.584ZM512.724 192.512C493.097 192.512 478.591 187.563 469.204 177.664C459.817 167.595 455.124 153.771 455.124 136.192C455.124 123.904 457.001 112.725 460.756 102.656C464.511 92.5867 469.716 83.968 476.372 76.8C483.199 69.632 491.391 64.0853 500.948 60.16C510.505 56.2347 521.172 54.272 532.948 54.272C539.604 54.272 545.833 55.04 551.636 56.576C557.609 58.112 562.815 60.416 567.252 63.488C571.689 66.3893 575.188 70.144 577.748 74.752C580.308 79.1893 581.588 84.48 581.588 90.624C581.588 95.9147 580.479 101.205 578.26 106.496C576.041 111.787 571.689 116.651 565.204 121.088C558.889 125.355 549.844 129.024 538.068 132.096C526.463 134.997 511.273 136.789 492.5 137.472C492.329 138.496 492.244 139.349 492.244 140.032C492.244 140.544 492.244 141.141 492.244 141.824C492.244 148.992 494.207 154.453 498.132 158.208C502.057 161.963 508.543 163.84 517.588 163.84C521.172 163.84 524.415 163.499 527.316 162.816C530.388 162.133 533.289 160.939 536.02 159.232C538.921 157.355 541.737 155.051 544.468 152.32C547.369 149.419 550.527 145.749 553.94 141.312L577.236 156.416C573.823 161.365 570.068 166.059 565.972 170.496C562.047 174.763 557.524 178.603 552.404 182.016C547.284 185.259 541.481 187.819 534.996 189.696C528.511 191.573 521.087 192.512 512.724 192.512ZM529.108 80.64C520.916 80.64 513.919 83.1147 508.116 88.064C502.313 92.8427 498.217 100.949 495.828 112.384L495.06 115.968C506.836 115.285 516.052 114.176 522.708 112.64C529.535 111.104 534.569 109.312 537.812 107.264C541.225 105.216 543.359 102.997 544.212 100.608C545.065 98.2187 545.492 96 545.492 93.952C545.492 85.0773 540.031 80.64 529.108 80.64ZM621.68 57.344H659.056L653.936 88.832H655.216C657.776 83.712 660.421 79.104 663.152 75.008C666.053 70.7413 669.211 67.072 672.624 64C676.208 60.928 680.133 58.5387 684.4 56.832C688.837 55.1253 693.872 54.272 699.504 54.272C706.501 54.272 712.389 55.4667 717.168 57.856C722.117 60.2453 726.128 63.744 729.2 68.352C732.272 72.7893 734.491 78.1653 735.856 84.48C737.392 90.7947 738.16 97.792 738.16 105.472C738.16 118.613 736.709 130.56 733.808 141.312C730.907 151.893 726.811 161.024 721.52 168.704C716.229 176.213 709.829 182.101 702.32 186.368C694.981 190.464 686.704 192.512 677.488 192.512C667.077 192.512 659.141 190.123 653.68 185.344C648.389 180.395 644.805 173.568 642.928 164.864H641.136L628.336 240.64H590.96L621.68 57.344ZM665.456 163.584C674.672 163.584 681.755 160.939 686.704 155.648C691.653 150.187 694.981 142.421 696.688 132.352L699.248 116.992C699.589 115.456 699.845 113.749 700.016 111.872C700.187 109.824 700.272 107.691 700.272 105.472C700.101 99.1573 698.736 93.8667 696.176 89.6C693.787 85.3333 689.349 83.2 682.864 83.2C678.256 83.2 674.16 84.3093 670.576 86.528C666.992 88.7467 663.664 91.8187 660.592 95.744C658.544 98.1333 656.24 101.547 653.68 105.984C651.12 110.251 649.413 115.115 648.56 120.576L644.976 141.824C643.781 148.821 644.805 154.197 648.048 157.952C651.461 161.707 657.264 163.584 665.456 163.584ZM785.676 0H823.052L808.46 88.832H809.74C814.689 78.08 820.407 69.632 826.892 63.488C833.548 57.344 842.167 54.272 852.748 54.272C859.233 54.272 864.695 55.296 869.132 57.344C873.74 59.392 877.495 62.208 880.396 65.792C883.297 69.2053 885.431 73.216 886.796 77.824C888.161 82.432 888.844 87.296 888.844 92.416C888.844 96.1707 888.588 100.011 888.076 103.936C887.735 107.861 887.052 112.896 886.028 119.04L874.252 189.44H836.876L849.42 114.432C849.761 112.043 850.103 109.653 850.444 107.264C850.956 104.704 851.212 101.803 851.212 98.56C851.212 96.8533 850.956 95.0613 850.444 93.184C849.932 91.3067 849.079 89.6 847.884 88.064C846.689 86.528 845.068 85.3333 843.02 84.48C841.143 83.456 838.753 82.944 835.852 82.944C831.415 82.944 827.575 83.968 824.332 86.016C821.089 88.064 818.017 91.0507 815.116 94.976C813.239 97.536 810.935 101.12 808.204 105.728C805.644 110.165 803.937 115.115 803.084 120.576L791.564 189.44H754.188L785.676 0ZM969.128 192.512C951.037 192.512 937.043 187.477 927.144 177.408C917.245 167.168 912.296 153.259 912.296 135.68C912.296 123.051 914.088 111.701 917.672 101.632C921.427 91.5627 926.547 83.0293 933.032 76.032C939.688 69.0347 947.539 63.6587 956.584 59.904C965.8 56.1493 975.955 54.272 987.048 54.272C1005.14 54.272 1019.13 59.392 1029.03 69.632C1038.93 79.7013 1043.88 93.5253 1043.88 111.104C1043.88 123.733 1042 135.083 1038.25 145.152C1034.66 155.221 1029.54 163.755 1022.89 170.752C1016.4 177.749 1008.55 183.125 999.336 186.88C990.291 190.635 980.221 192.512 969.128 192.512ZM971.944 164.608C980.136 164.608 986.792 162.133 991.912 157.184C997.203 152.235 1000.62 145.152 1002.15 135.936L1005.48 115.968C1005.82 114.432 1006.08 112.725 1006.25 110.848C1006.59 108.8 1006.76 107.008 1006.76 105.472C1006.76 97.6213 1004.71 91.8187 1000.62 88.064C996.691 84.1387 991.229 82.176 984.232 82.176C976.04 82.176 969.299 84.6507 964.008 89.6C958.888 94.5493 955.56 101.632 954.024 110.848L950.696 130.816C950.355 132.352 950.013 134.144 949.672 136.192C949.501 138.069 949.416 139.776 949.416 141.312C949.416 149.163 951.379 155.051 955.304 158.976C959.4 162.731 964.947 164.608 971.944 164.608ZM1061.19 189.44L1083.2 57.344H1120.58L1115.46 88.832H1116.74C1121.69 78.08 1127.41 69.632 1133.89 63.488C1140.55 57.344 1149.17 54.272 1159.75 54.272C1166.23 54.272 1171.69 55.296 1176.13 57.344C1180.74 59.392 1184.49 62.208 1187.4 65.792C1190.3 69.2053 1192.43 73.216 1193.8 77.824C1195.16 82.432 1195.84 87.296 1195.84 92.416C1195.84 96.1707 1195.59 100.011 1195.08 103.936C1194.73 107.861 1194.05 112.896 1193.03 119.04L1181.25 189.44H1143.88L1156.42 114.432C1156.76 112.043 1157.1 109.653 1157.44 107.264C1157.96 104.704 1158.21 101.803 1158.21 98.56C1158.21 96.8533 1157.96 95.0613 1157.44 93.184C1156.93 91.3067 1156.08 89.6 1154.88 88.064C1153.69 86.528 1152.07 85.3333 1150.02 84.48C1148.14 83.456 1145.75 82.944 1142.85 82.944C1138.41 82.944 1134.57 83.968 1131.33 86.016C1128.09 88.064 1125.02 91.0507 1122.12 94.976C1120.24 97.536 1117.93 101.12 1115.2 105.728C1112.64 110.165 1110.94 115.115 1110.08 120.576L1098.56 189.44H1061.19ZM1280.22 192.512C1260.6 192.512 1246.09 187.563 1236.7 177.664C1227.32 167.595 1222.62 153.771 1222.62 136.192C1222.62 123.904 1224.5 112.725 1228.26 102.656C1232.01 92.5867 1237.22 83.968 1243.87 76.8C1250.7 69.632 1258.89 64.0853 1268.45 60.16C1278.01 56.2347 1288.67 54.272 1300.45 54.272C1307.1 54.272 1313.33 55.04 1319.14 56.576C1325.11 58.112 1330.31 60.416 1334.75 63.488C1339.19 66.3893 1342.69 70.144 1345.25 74.752C1347.81 79.1893 1349.09 84.48 1349.09 90.624C1349.09 95.9147 1347.98 101.205 1345.76 106.496C1343.54 111.787 1339.19 116.651 1332.7 121.088C1326.39 125.355 1317.34 129.024 1305.57 132.096C1293.96 134.997 1278.77 136.789 1260 137.472C1259.83 138.496 1259.74 139.349 1259.74 140.032C1259.74 140.544 1259.74 141.141 1259.74 141.824C1259.74 148.992 1261.71 154.453 1265.63 158.208C1269.56 161.963 1276.04 163.84 1285.09 163.84C1288.67 163.84 1291.91 163.499 1294.82 162.816C1297.89 162.133 1300.79 160.939 1303.52 159.232C1306.42 157.355 1309.24 155.051 1311.97 152.32C1314.87 149.419 1318.03 145.749 1321.44 141.312L1344.74 156.416C1341.32 161.365 1337.57 166.059 1333.47 170.496C1329.55 174.763 1325.02 178.603 1319.9 182.016C1314.78 185.259 1308.98 187.819 1302.5 189.696C1296.01 191.573 1288.59 192.512 1280.22 192.512ZM1296.61 80.64C1288.42 80.64 1281.42 83.1147 1275.62 88.064C1269.81 92.8427 1265.72 100.949 1263.33 112.384L1262.56 115.968C1274.34 115.285 1283.55 114.176 1290.21 112.64C1297.03 111.104 1302.07 109.312 1305.31 107.264C1308.73 105.216 1310.86 102.997 1311.71 100.608C1312.57 98.2187 1312.99 96 1312.99 93.952C1312.99 85.0773 1307.53 80.64 1296.61 80.64Z" fill="black"/>
</svg>
