<svg xmlns="http://www.w3.org/2000/svg" width="1024" height="1024" viewBox="0 0 1024 1024">
  <rect width="1024" height="1024" rx="224" fill="#F3F0E8"/>
  <rect x="176" y="274" width="672" height="476" rx="88" fill="#25231F"/>
  <g fill="#F3F0E8">
    <rect x="250" y="364" width="86" height="72" rx="16"/>
    <rect x="360" y="364" width="86" height="72" rx="16"/>
    <rect x="470" y="364" width="86" height="72" rx="16"/>
    <rect x="580" y="364" width="86" height="72" rx="16"/>
    <rect x="690" y="364" width="86" height="72" rx="16"/>
    <rect x="250" y="462" width="86" height="72" rx="16"/>
    <rect x="360" y="462" width="86" height="72" rx="16"/>
    <rect x="470" y="462" width="86" height="72" rx="16"/>
    <rect x="580" y="462" width="196" height="72" rx="16"/>
    <rect x="250" y="560" width="526" height="88" rx="20"/>
  </g>
  <circle cx="812" cy="230" r="58" fill="#B95F24"/>
</svg>
